<?xml version="1.0" standalone="no"?>
<!DOCTYPE svg PUBLIC "-//W3C//DTD SVG 20010904//EN"
 "http://www.w3.org/TR/2001/REC-SVG-20010904/DTD/svg10.dtd">
<svg version="1.0" xmlns="http://www.w3.org/2000/svg"
 width="1280.000000pt" height="720.000000pt" viewBox="0 0 1280.000000 720.000000"
 preserveAspectRatio="xMidYMid meet">
<metadata>
Created by potrace 1.16, written by Peter Selinger 2001-2019
</metadata>
<g transform="translate(0.000000,720.000000) scale(0.100000,-0.100000)"
fill="#000000" stroke="none">
<path d="M6612 6954 c-191 -95 -482 -640 -767 -1434 -36 -102 -71 -201 -78
-220 l-13 -35 -149 -12 c-140 -12 -361 -37 -430 -49 l-30 -5 3 -1099 2 -1098
-35 -183 c-257 -1328 -301 -2333 -111 -2534 28 -30 40 -35 77 -35 70 0 122 37
220 158 91 113 246 387 345 609 l24 56 -50 -51 c-74 -75 -118 -82 -156 -24
-82 121 -79 538 7 1147 175 1238 616 2861 998 3669 173 366 316 500 380 356
10 -22 21 -37 24 -33 4 3 7 77 7 163 0 360 -53 606 -143 660 -42 26 -63 25
-125 -6z"/>
<path d="M6267 5023 c-47 -142 -97 -294 -110 -338 l-24 -80 216 0 c244 0 302
-10 428 -71 194 -93 296 -266 296 -499 -1 -320 -184 -533 -527 -612 -80 -19
-436 -23 -491 -6 l-30 9 -5 388 -5 387 -57 -218 c-252 -961 -411 -1863 -444
-2510 l-7 -133 257 0 256 0 0 700 0 701 53 -8 c79 -12 459 -8 572 6 280 35
513 107 708 219 376 216 576 563 594 1029 9 237 -22 409 -108 592 -169 362
-488 578 -972 660 -128 22 -333 41 -441 41 l-73 0 -86 -257z"/>
</g>
</svg>
